<svg width="162" height="25" viewBox="0 0 162 25" fill="none" xmlns="http://www.w3.org/2000/svg">
<g clip-path="url(#clip0_2958_521)">
<path d="M123.024 10.4166C127.414 6.38136 125.923 0.696045 120.446 0.696045H116.316L114.044 4.86163H119.481C121.516 4.86163 120.762 8.33381 118.731 8.31687C118.391 8.31426 117.37 8.33512 117.37 8.33512L114.264 12.4955L118.501 12.502C120.535 12.502 119.782 15.9742 117.747 15.9742H111.443L107.722 20.8358H118.726C123.475 20.8358 127.319 12.502 123.022 10.4192L123.024 10.4166Z" fill="#BFFE5F"/>
<path d="M140.893 0.693364H130.574C130.574 0.693364 129.217 0.693364 128.753 2.77746L125.448 18.0556C125.148 19.4437 126.202 20.8331 127.559 20.8331H137.432C140.209 20.4968 140.304 16.2895 137.432 15.9715L133.212 15.9963C131.179 16.0106 131.353 15.9793 131.629 14.5834C132.089 12.5228 132.156 12.5006 134.083 12.5058L137.986 12.5124C140.599 12.5124 140.727 8.32201 137.886 8.32201L135.018 8.33374C133.664 8.33374 133.083 7.8706 133.275 6.94434C133.711 4.85764 133.727 4.86155 135.768 4.83809L140.894 4.85634C143.687 4.86155 143.641 0.688151 140.894 0.693364H140.893Z" fill="#BFFE5F"/>
<path d="M160.006 0.694702H146.177C143.886 0.694702 143.561 4.86289 146.361 4.86289H149.342C150.021 4.86289 150.571 5.4872 150.398 6.25228L147.833 18.0582C147.229 20.8357 151.676 22.2251 152.432 18.7529L155.145 6.25228C155.447 4.86289 156.126 4.86289 156.811 4.84334C156.811 4.84334 160.195 4.86419 160.196 4.86419C162.549 4.86419 162.714 0.697309 160.006 0.697309V0.694702Z" fill="#BFFE5F"/>
<path d="M115.122 0.00012207L110.997 8.34171H116.018L102.912 25.0001L107.661 12.5008H104.268L108.339 0.00012207H115.122Z" fill="#BFFE5F"/>
<path d="M0.0470957 18.5274L3.75956 2.13619C3.95053 1.29421 4.68385 0.697266 5.52794 0.697266H11.4658C13.8071 0.697266 15.6366 1.23035 16.9569 2.2965C18.2758 3.36266 18.9353 4.84069 18.9353 6.72928C18.9353 8.19166 18.5979 9.48591 17.9232 10.6133C17.2484 11.7407 16.2757 12.6244 15.0064 13.2644C13.7371 13.9043 12.2284 14.2237 10.483 14.2237H6.02574C4.86209 14.2237 4.00018 13.1197 4.25481 11.9571L4.30191 11.7434C4.48779 10.8949 5.22366 10.2927 6.07284 10.2927H10.334C11.1081 10.2927 11.7574 10.1454 12.2832 9.85086C12.809 9.55629 13.2062 9.1705 13.4736 8.69346C13.7409 8.21643 13.8759 7.69377 13.8759 7.1242C13.8759 6.3526 13.6378 5.74393 13.1617 5.29687C12.6855 4.84981 11.9318 4.62694 10.9006 4.62694H9.75475C8.90938 4.62694 8.17733 5.22388 7.98636 6.06586L4.97667 19.3655C4.7857 20.2075 4.05238 20.8044 3.20829 20.8044H1.81675C0.648015 20.8044 -0.21517 19.6913 0.0483688 18.5261L0.0470957 18.5274Z" fill="white"/>
<path d="M28.3234 21.1094C26.6963 21.1094 25.2182 20.764 23.889 20.0732C22.5599 19.3824 21.5083 18.3723 20.7342 17.0415C19.9602 15.7121 19.5731 14.1116 19.5731 12.2438C19.5731 10.5781 19.8061 9.02449 20.2721 7.58296C20.738 6.14143 21.423 4.88237 22.3256 3.80579C23.2283 2.7292 24.3385 1.89113 25.6587 1.29288C26.9777 0.694634 28.4812 0.393555 30.1669 0.393555C31.8525 0.393555 33.2911 0.744162 34.6012 1.44407C35.91 2.14529 36.9527 3.15019 37.7255 4.46008C38.4995 5.76997 38.8866 7.36921 38.8866 9.2578C38.8866 10.9235 38.6536 12.4719 38.1876 13.9043C37.7217 15.3367 37.0367 16.5958 36.1341 17.6815C35.2314 18.7685 34.125 19.6118 32.8163 20.21C31.5075 20.8083 30.009 21.1094 28.3221 21.1094H28.3234ZM28.5016 16.9972C29.3941 16.9972 30.1631 16.7535 30.8085 16.266C31.4527 15.7786 31.9938 15.1347 32.4305 14.3318C32.8672 13.5303 33.1944 12.6518 33.4121 11.6964C33.6298 10.7423 33.7393 9.80782 33.7393 8.89415C33.7393 7.98049 33.5903 7.16849 33.2924 6.5181C32.9945 5.86772 32.568 5.37114 32.0129 5.02574C31.4578 4.68035 30.7729 4.5083 29.9594 4.5083C29.086 4.5083 28.3221 4.75203 27.6677 5.2395C27.0133 5.72696 26.4671 6.37213 26.0305 7.1737C25.5938 7.97658 25.2666 8.84984 25.0489 9.79348C24.8299 10.7384 24.7217 11.6782 24.7217 12.6114C24.7217 13.5446 24.8706 14.3383 25.1685 14.9874C25.4665 15.6378 25.8981 16.1357 26.4633 16.4798C27.0286 16.8252 27.7084 16.9972 28.5016 16.9972Z" fill="white"/>
<path d="M40.8867 19.0475L40.0133 2.65758C39.956 1.59272 40.7848 0.698608 41.8262 0.698608H43.1261C44.1268 0.698608 44.9391 1.52886 44.9416 2.55331L44.9632 13.8953C44.9632 14.4596 45.7195 14.6199 45.9397 14.1025L51.1596 1.8169C51.4473 1.13915 52.1017 0.699912 52.8249 0.699912H54.5792C55.571 0.699912 56.3794 1.51452 56.3947 2.52985L56.5679 14.0113C56.5768 14.573 57.3279 14.7255 57.5444 14.2094L62.7388 1.82603C63.0252 1.14306 63.6809 0.701215 64.4066 0.701215H65.8197C67.1807 0.701215 68.0579 2.17794 67.4315 3.41484L59.1358 19.8048C58.8239 20.4213 58.2026 20.8084 57.524 20.8084H54.7307C53.739 20.8084 52.9318 19.9937 52.9152 18.9784L52.7956 11.1243C52.7956 11.0813 52.7956 11.0383 52.7981 10.9953L53.0629 6.00334H52.9738L50.9508 11.0604L47.1467 19.7135C46.8539 20.3808 46.2058 20.8097 45.4916 20.8097H42.7009C41.7371 20.8097 40.9414 20.0381 40.8879 19.0527L40.8867 19.0475Z" fill="white"/>
<path d="M66.213 18.5274L69.9242 2.13753C70.1152 1.29555 70.8485 0.698608 71.6926 0.698608H83.2425C84.4163 0.698608 85.282 1.82342 85.007 2.99124L84.9281 3.32621C84.7321 4.16167 84.0025 4.74949 83.1635 4.74949H75.8889C75.0435 4.74949 74.3102 5.34644 74.1205 6.18842L74.0377 6.55336C73.7742 7.71857 74.6386 8.83035 75.8061 8.83035H79.2436C80.4123 8.83035 81.2755 9.94343 81.012 11.1086L80.9916 11.1999C80.8006 12.0419 80.0673 12.6388 79.2232 12.6388H74.1065C73.2598 12.6388 72.5265 13.2371 72.3368 14.0816L72.2477 14.4779C71.9867 15.6418 72.8499 16.7523 74.0174 16.7523H79.926C81.0947 16.7523 81.9592 17.8666 81.6944 19.0319L81.618 19.3668C81.427 20.2075 80.6937 20.8031 79.8496 20.8031H67.9814C66.8127 20.8031 65.9495 19.6901 66.213 18.5248V18.5274Z" fill="white"/>
<path d="M83.8766 18.5275L87.5878 2.13753C87.7788 1.29555 88.5121 0.698608 89.3562 0.698608H96.3355C98.3585 0.698608 99.9614 1.20171 101.142 2.20661C102.322 3.21151 102.913 4.61916 102.913 6.42563C102.913 7.88802 102.58 9.12752 101.916 10.1429C101.251 11.1582 100.354 11.9454 99.223 12.5033C98.1357 13.0416 96.9097 13.3478 95.5462 13.4247C95.4379 13.4313 95.331 13.4456 95.2253 13.4717L94.4589 13.658C94.3214 13.6906 94.1814 13.7076 94.0401 13.7076H89.8693C89.705 13.7076 89.5841 13.5525 89.621 13.3883L90.3378 10.1924C90.3645 10.0738 90.4676 9.99036 90.586 9.99036H94.2819C95.056 9.99036 95.7053 9.85872 96.2311 9.59413C96.7569 9.33085 97.158 8.95939 97.4368 8.48235C97.7143 8.00532 97.8531 7.48267 97.8531 6.91309C97.8531 6.12064 97.5946 5.54716 97.079 5.19134C96.5634 4.83682 95.8988 4.65826 95.0853 4.65826H93.4926C92.6485 4.65826 91.9152 5.2539 91.7242 6.09588L88.7158 19.3655C88.5248 20.2075 87.7915 20.8031 86.9474 20.8031H85.645C84.4763 20.8031 83.6131 19.6901 83.8766 18.5248V18.5275ZM95.6251 19.6027L93.6454 14.2367C93.238 13.1315 93.9267 11.9233 95.0675 11.7434L96.0783 11.5844C96.9097 11.454 97.7194 11.9246 98.0364 12.7209L100.23 18.2472C100.715 19.4698 99.8366 20.8057 98.5482 20.8057H97.3222C96.5672 20.8057 95.8912 20.3274 95.6238 19.604L95.6251 19.6027Z" fill="white"/>
</g>
<defs>
<clipPath id="clip0_2958_521">
<rect width="162" height="25" fill="white"/>
</clipPath>
</defs>
</svg>
