<svg width="445" height="68" viewBox="0 0 445 68" fill="none" xmlns="http://www.w3.org/2000/svg">
<g clip-path="url(#clip0_2958_509)">
<path d="M337.937 28.3331C349.995 17.3572 345.9 1.89319 330.855 1.89319H319.51L313.268 13.2236H328.204C333.793 13.2236 331.723 22.6679 326.145 22.6218C325.211 22.6147 322.406 22.6715 322.406 22.6715L313.873 33.9877L325.512 34.0054C331.1 34.0054 329.03 43.4497 323.441 43.4497H306.123L295.904 56.6732H326.131C339.175 56.6732 349.733 34.0054 337.93 28.3402L337.937 28.3331Z" fill="#8A3AED"/>
<path d="M387.02 1.88612H358.675C358.675 1.88612 354.947 1.88612 353.674 7.55486L344.596 49.1114C343.77 52.887 346.666 56.6662 350.394 56.6662H377.515C385.142 55.7515 385.404 44.3077 377.515 43.4427L365.921 43.51C360.336 43.549 360.816 43.4639 361.574 39.667C362.837 34.0621 363.022 34.0019 368.314 34.016L379.036 34.0338C386.212 34.0338 386.565 22.636 378.76 22.636L370.884 22.6679C367.163 22.6679 365.567 21.4082 366.096 18.8888C367.292 13.213 367.338 13.2236 372.944 13.1598L387.024 13.2094C394.696 13.2236 394.57 1.87194 387.024 1.88612H387.02Z" fill="#8A3AED"/>
<path d="M439.523 1.88953H401.537C395.242 1.88953 394.35 13.227 402.04 13.227H410.231C412.095 13.227 413.606 14.9251 413.13 17.0062L406.083 49.1183C404.426 56.6731 416.641 60.4523 418.719 51.0079L426.171 17.0062C427 13.227 428.864 13.227 430.745 13.1738C430.745 13.1738 440.041 13.2305 440.044 13.2305C446.507 13.2305 446.962 1.89662 439.523 1.89662V1.88953Z" fill="#8A3AED"/>
<path d="M316.23 0.00012207L304.899 22.6892H318.692L282.692 68.0001L295.736 34.0019H286.416L297.597 0.00012207H316.23Z" fill="#8A3AED"/>
<path d="M0.129309 50.3946L10.3271 5.81048C10.8517 3.5203 12.8661 1.89661 15.1847 1.89661H31.4956C37.9269 1.89661 42.9524 3.34658 46.579 6.24654C50.2021 9.14649 52.0136 13.1667 52.0136 18.3037C52.0136 22.2814 51.0869 25.8017 49.2334 28.8683C47.3799 31.9349 44.708 34.3385 41.2213 36.0792C37.7346 37.8199 33.5904 38.6884 28.7958 38.6884H16.5521C13.3557 38.6884 10.9881 35.6857 11.6875 32.5234L11.8169 31.942C12.3275 29.6341 14.3489 27.9962 16.6815 27.9962H28.3866C30.5129 27.9962 32.2965 27.5956 33.7408 26.7944C35.1851 25.9932 36.2763 24.9438 37.0107 23.6463C37.7451 22.3487 38.1158 20.9271 38.1158 19.3779C38.1158 17.2791 37.4618 15.6235 36.1539 14.4075C34.8459 13.1915 32.7756 12.5853 29.9429 12.5853H26.7954C24.4733 12.5853 22.4624 14.209 21.9378 16.4992L13.6704 52.6741C13.1459 54.9643 11.1315 56.588 8.81283 56.588H4.9904C1.77998 56.588 -0.591112 53.5604 0.132806 50.3911L0.129309 50.3946Z" fill="white"/>
<path d="M77.8019 57.4177C73.3325 57.4177 69.2723 56.4782 65.6212 54.5993C61.9702 52.7203 59.0815 49.9728 56.9552 46.3532C54.8289 42.7371 53.7657 38.3836 53.7657 33.3034C53.7657 28.7727 54.4057 24.5468 55.6857 20.6259C56.9657 16.7049 58.8472 13.2803 61.3267 10.3519C63.8062 7.42363 66.8557 5.14408 70.4823 3.51685C74.1054 1.88961 78.2356 1.07068 82.8659 1.07068C87.4961 1.07068 91.448 2.02433 95.0466 3.92809C98.6417 5.83539 101.506 8.56872 103.629 12.1316C105.755 15.6945 106.818 20.0445 106.818 25.1814C106.818 29.7121 106.178 33.9238 104.898 37.82C103.618 41.7161 101.737 45.1407 99.2572 48.0939C96.7777 51.0506 93.7386 53.3443 90.1435 54.9715C86.5484 56.5988 82.4322 57.4177 77.7984 57.4177H77.8019ZM78.2915 46.2327C80.7431 46.2327 82.8554 45.5697 84.6285 44.2438C86.398 42.9179 87.8843 41.1666 89.0839 38.9828C90.2834 36.8025 91.1822 34.413 91.7802 31.8144C92.3782 29.2194 92.679 26.6775 92.679 24.1923C92.679 21.7071 92.2698 19.4985 91.4515 17.7295C90.6331 15.9604 89.4616 14.6097 87.9368 13.6702C86.412 12.7308 84.5305 12.2628 82.2958 12.2628C79.8968 12.2628 77.7984 12.9257 76.0009 14.2516C74.2033 15.5775 72.703 17.3324 71.5035 19.5127C70.304 21.6965 69.4052 24.0718 68.8072 26.6385C68.2056 29.2087 67.9084 31.7648 67.9084 34.3032C67.9084 36.8415 68.3176 39.0005 69.1359 40.766C69.9542 42.535 71.1398 43.8893 72.6925 44.8252C74.2453 45.7647 76.1128 46.2327 78.2915 46.2327Z" fill="white"/>
<path d="M112.312 51.8091L109.913 7.22854C109.756 4.33214 112.032 1.90015 114.893 1.90015H118.464C121.213 1.90015 123.444 4.15842 123.451 6.94493L123.51 37.795C123.51 39.3301 125.587 39.7662 126.193 38.3587L140.531 4.94191C141.321 3.09842 143.119 1.90369 145.105 1.90369H149.924C152.649 1.90369 154.869 4.11943 154.911 6.88112L155.387 38.1106C155.412 39.6385 157.475 40.0533 158.069 38.6494L172.338 4.96672C173.125 3.10905 174.926 1.90724 176.919 1.90724H180.801C184.54 1.90724 186.949 5.92392 185.229 9.28829L162.441 53.8689C161.584 55.5457 159.877 56.5987 158.013 56.5987H150.341C147.616 56.5987 145.399 54.3829 145.354 51.6212L145.025 30.258C145.025 30.141 145.025 30.024 145.032 29.907L145.759 16.329H145.514L139.957 30.0843L129.508 53.6207C128.703 55.4358 126.923 56.6022 124.962 56.6022H117.296C114.648 56.6022 112.463 54.5035 112.316 51.8233L112.312 51.8091Z" fill="white"/>
<path d="M181.882 50.3946L192.076 5.81402C192.6 3.52384 194.615 1.90015 196.933 1.90015H228.66C231.884 1.90015 234.262 4.95963 233.507 8.13611L233.29 9.04722C232.752 11.3197 230.748 12.9185 228.443 12.9185H208.46C206.138 12.9185 204.124 14.5422 203.603 16.8324L203.375 17.8251C202.651 20.9945 205.026 24.0185 208.233 24.0185H217.675C220.886 24.0185 223.257 27.0461 222.533 30.2155L222.477 30.4636C221.952 32.7538 219.938 34.3775 217.619 34.3775H203.564C201.239 34.3775 199.224 36.0047 198.703 38.302L198.458 39.3797C197.741 42.5456 200.112 45.5661 203.319 45.5661H219.55C222.76 45.5661 225.135 48.5972 224.407 51.7666L224.198 52.6777C223.673 54.9643 221.659 56.5845 219.34 56.5845H186.739C183.529 56.5845 181.158 53.5569 181.882 50.3875V50.3946Z" fill="white"/>
<path d="M230.402 50.3946L240.596 5.81402C241.121 3.52384 243.135 1.90015 245.454 1.90015H264.625C270.182 1.90015 274.585 3.26858 277.827 6.00191C281.069 8.73524 282.692 12.564 282.692 17.4776C282.692 21.4553 281.779 24.8268 279.954 27.5885C278.128 30.3502 275.662 32.4915 272.557 34.0088C269.57 35.473 266.203 36.3061 262.457 36.5152C262.16 36.533 261.866 36.572 261.576 36.6429L259.47 37.1498C259.093 37.2385 258.708 37.2845 258.32 37.2845H246.863C246.412 37.2845 246.08 36.8627 246.181 36.416L248.15 27.7232C248.224 27.4006 248.507 27.1737 248.832 27.1737H258.984C261.111 27.1737 262.894 26.8156 264.339 26.096C265.783 25.3798 266.885 24.3695 267.65 23.0719C268.413 21.7744 268.794 20.3528 268.794 18.8035C268.794 16.6481 268.084 15.0882 266.668 14.1204C265.251 13.1561 263.426 12.6704 261.191 12.6704H256.816C254.497 12.6704 252.483 14.2905 251.959 16.5807L243.695 52.6741C243.17 54.9643 241.156 56.5845 238.837 56.5845H235.259C232.049 56.5845 229.678 53.5569 230.402 50.3875V50.3946ZM262.674 53.3194L257.236 38.7239C256.117 35.7176 258.009 32.4312 261.142 31.942L263.919 31.5094C266.203 31.1549 268.427 32.4347 269.298 34.6008L275.323 49.6324C276.656 52.9578 274.243 56.5916 270.703 56.5916H267.336C265.262 56.5916 263.405 55.2905 262.67 53.3229L262.674 53.3194Z" fill="white"/>
</g>
<defs>
<clipPath id="clip0_2958_509">
<rect width="445" height="68" fill="white"/>
</clipPath>
</defs>
</svg>
